<svg xmlns="http://www.w3.org/2000/svg" width="1200" height="720" viewBox="0 0 1200 720">
<rect width="1200" height="720" rx="36" fill="#17131a"/><g stroke="#4d4352" opacity=".35">
<path d="M0 120H1200M0 240H1200M0 360H1200M0 480H1200M0 600H1200"/><path d="M120 0V720M240 0V720M360 0V720M480 0V720M600 0V720M720 0V720M840 0V720M960 0V720M1080 0V720"/></g>
<text x="70" y="90" fill="#b2a7b8" font-family="Arial" font-size="24">ARCHITECTURE PREVIEW · C++ SENSOR DASHBOARD</text>
<g font-family="Arial" text-anchor="middle"><rect x="75" y="250" width="260" height="150" rx="24" fill="#211a25" stroke="#b06eda" stroke-width="3"/><text x="205" y="315" fill="white" font-size="31">C++17 Backend</text><text x="205" y="355" fill="#b2a7b8" font-size="20">threads · mutex · RAII</text>
<rect x="470" y="250" width="260" height="150" rx="24" fill="#211a25" stroke="#b2a7b8" stroke-width="2"/><text x="600" y="315" fill="white" font-size="31">HTTP JSON API</text><text x="600" y="355" fill="#b2a7b8" font-size="20">sensor data + history</text>
<rect x="865" y="250" width="260" height="150" rx="24" fill="#211a25" stroke="#b06eda" stroke-width="3"/><text x="995" y="315" fill="white" font-size="31">Web Dashboard</text><text x="995" y="355" fill="#b2a7b8" font-size="20">HTML · JS · Chart.js</text>
<path d="M335 325H470M730 325H865" stroke="#b06eda" stroke-width="5"/><path d="M450 310l20 15-20 15M845 310l20 15-20 15" fill="none" stroke="#b06eda" stroke-width="5"/></g>
<text x="70" y="650" fill="#8f8494" font-family="Arial" font-size="21">Portfolio diagram based on the repository architecture — not an application screenshot.</text></svg>